<svg width="390" height="115" viewBox="0 0 390 115" fill="none" xmlns="http://www.w3.org/2000/svg">
<path d="M1.35124 16V6.12241H2.4998V14.9731H6.88459V16H1.35124ZM14.7961 12.2841C14.7961 12.8921 14.7173 13.4349 14.5596 13.9123C14.402 14.3898 14.1745 14.7929 13.8773 15.1217C13.58 15.4505 13.2197 15.7027 12.7963 15.8784C12.3774 16.0495 11.9022 16.1351 11.3707 16.1351C10.8753 16.1351 10.4203 16.0495 10.006 15.8784C9.59608 15.7027 9.24025 15.4505 8.93848 15.1217C8.6412 14.7929 8.40924 14.3898 8.24259 13.9123C8.08044 13.4349 7.99936 12.8921 7.99936 12.2841C7.99936 11.4733 8.13674 10.7842 8.41149 10.2167C8.68624 9.64465 9.0781 9.21 9.58707 8.91273C10.1005 8.61095 10.7109 8.46006 11.418 8.46006C12.0936 8.46006 12.6837 8.61095 13.1881 8.91273C13.6971 9.21451 14.0912 9.65141 14.3705 10.2234C14.6542 10.791 14.7961 11.4778 14.7961 12.2841ZM9.16143 12.2841C9.16143 12.8786 9.24025 13.3944 9.3979 13.8313C9.55554 14.2682 9.79877 14.606 10.1276 14.8447C10.4564 15.0834 10.8798 15.2028 11.3977 15.2028C11.9112 15.2028 12.3323 15.0834 12.6612 14.8447C12.9945 14.606 13.2399 14.2682 13.3976 13.8313C13.5552 13.3944 13.634 12.8786 13.634 12.2841C13.634 11.694 13.5552 11.1851 13.3976 10.7572C13.2399 10.3248 12.9967 9.99147 12.6679 9.75725C12.3391 9.52304 11.9135 9.40593 11.391 9.40593C10.6208 9.40593 10.0555 9.66042 9.69517 10.1694C9.33935 10.6784 9.16143 11.3833 9.16143 12.2841ZM20.2416 8.46006C21.1199 8.46006 21.7843 8.67626 22.2347 9.10866C22.6851 9.53655 22.9103 10.2257 22.9103 11.1761V16H21.8023V11.2504C21.8023 10.6333 21.6604 10.1716 21.3767 9.86535C21.0974 9.55907 20.6673 9.40593 20.0862 9.40593C19.2665 9.40593 18.6899 9.6379 18.3566 10.1018C18.0233 10.5657 17.8567 11.2391 17.8567 12.1219V16H16.7352V8.59519H17.6405L17.8094 9.66267H17.8702C18.0278 9.40143 18.2283 9.18298 18.4715 9.00731C18.7147 8.82715 18.9872 8.69202 19.289 8.60194C19.5908 8.50735 19.9083 8.46006 20.2416 8.46006ZM27.8559 16.1351C26.919 16.1351 26.1758 15.8153 25.6263 15.1757C25.0813 14.5362 24.8088 13.5858 24.8088 12.3246C24.8088 11.0499 25.0881 10.0883 25.6466 9.43971C26.2051 8.78661 26.9483 8.46006 27.8762 8.46006C28.268 8.46006 28.6103 8.51186 28.9031 8.61545C29.1959 8.71905 29.4481 8.85868 29.6598 9.03434C29.8715 9.2055 30.0494 9.40143 30.1935 9.62213H30.2746C30.2566 9.4825 30.2386 9.29108 30.2206 9.04785C30.2025 8.80463 30.1935 8.60645 30.1935 8.4533V5.48733H31.3151V16H30.4097L30.2408 14.946H30.1935C30.0539 15.1667 29.876 15.3672 29.6598 15.5473C29.4481 15.7275 29.1936 15.8716 28.8963 15.9797C28.6036 16.0833 28.2568 16.1351 27.8559 16.1351ZM28.0315 15.2028C28.8243 15.2028 29.385 14.9776 29.7138 14.5271C30.0426 14.0767 30.207 13.4079 30.207 12.5205V12.3179C30.207 11.3765 30.0494 10.6536 29.7341 10.1491C29.4233 9.64465 28.8558 9.39242 28.0315 9.39242C27.3424 9.39242 26.8267 9.65816 26.4844 10.1897C26.1421 10.7166 25.9709 11.4373 25.9709 12.3516C25.9709 13.2615 26.1398 13.9641 26.4776 14.4596C26.8199 14.955 27.3379 15.2028 28.0315 15.2028ZM40.0779 12.2841C40.0779 12.8921 39.9991 13.4349 39.8414 13.9123C39.6838 14.3898 39.4563 14.7929 39.159 15.1217C38.8618 15.4505 38.5014 15.7027 38.078 15.8784C37.6592 16.0495 37.184 16.1351 36.6525 16.1351C36.157 16.1351 35.7021 16.0495 35.2877 15.8784C34.8778 15.7027 34.522 15.4505 34.2202 15.1217C33.923 14.7929 33.691 14.3898 33.5244 13.9123C33.3622 13.4349 33.2811 12.8921 33.2811 12.2841C33.2811 11.4733 33.4185 10.7842 33.6933 10.2167C33.968 9.64465 34.3599 9.21 34.8688 8.91273C35.3823 8.61095 35.9926 8.46006 36.6998 8.46006C37.3754 8.46006 37.9654 8.61095 38.4699 8.91273C38.9789 9.21451 39.373 9.65141 39.6522 10.2234C39.936 10.791 40.0779 11.4778 40.0779 12.2841ZM34.4432 12.2841C34.4432 12.8786 34.522 13.3944 34.6797 13.8313C34.8373 14.2682 35.0805 14.606 35.4093 14.8447C35.7381 15.0834 36.1615 15.2028 36.6795 15.2028C37.193 15.2028 37.6141 15.0834 37.9429 14.8447C38.2762 14.606 38.5217 14.2682 38.6793 13.8313C38.837 13.3944 38.9158 12.8786 38.9158 12.2841C38.9158 11.694 38.837 11.1851 38.6793 10.7572C38.5217 10.3248 38.2785 9.99147 37.9497 9.75725C37.6209 9.52304 37.1952 9.40593 36.6727 9.40593C35.9025 9.40593 35.3373 9.66042 34.9769 10.1694C34.6211 10.6784 34.4432 11.3833 34.4432 12.2841ZM45.5234 8.46006C46.4017 8.46006 47.0661 8.67626 47.5165 9.10866C47.9669 9.53655 48.1921 10.2257 48.1921 11.1761V16H47.0841V11.2504C47.0841 10.6333 46.9422 10.1716 46.6584 9.86535C46.3792 9.55907 45.949 9.40593 45.368 9.40593C44.5482 9.40593 43.9717 9.6379 43.6384 10.1018C43.3051 10.5657 43.1384 11.2391 43.1384 12.1219V16H42.0169V8.59519H42.9223L43.0912 9.66267H43.152C43.3096 9.40143 43.51 9.18298 43.7533 9.00731C43.9965 8.82715 44.269 8.69202 44.5708 8.60194C44.8725 8.50735 45.1901 8.46006 45.5234 8.46006ZM61.9883 16H60.6641L55.2794 7.70336H55.2253C55.2388 7.92407 55.2546 8.1763 55.2726 8.46006C55.2906 8.73932 55.3041 9.03884 55.3132 9.35864C55.3267 9.67393 55.3334 9.99597 55.3334 10.3248V16H54.2659V6.12241H55.5834L60.9478 14.392H60.9951C60.9861 14.2344 60.9749 14.0114 60.9614 13.7232C60.9478 13.4304 60.9343 13.1173 60.9208 12.784C60.9118 12.4462 60.9073 12.1332 60.9073 11.8449V6.12241H61.9883V16ZM75.9061 6.12241L73.2644 16H72.1091L70.1498 9.35188C70.0913 9.16271 70.035 8.97353 69.9809 8.78436C69.9314 8.59068 69.8841 8.40826 69.839 8.23711C69.794 8.06144 69.7557 7.9083 69.7242 7.77768C69.6971 7.64256 69.6769 7.54122 69.6634 7.47365C69.6544 7.54122 69.6363 7.64031 69.6093 7.77093C69.5868 7.90155 69.5553 8.05244 69.5147 8.22359C69.4787 8.39475 69.4336 8.57717 69.3796 8.77085C69.3301 8.96453 69.276 9.16046 69.2174 9.35864L67.3122 16H66.1569L63.5355 6.12241H64.7313L66.319 12.3179C66.3731 12.5251 66.4226 12.73 66.4677 12.9327C66.5172 13.1309 66.56 13.3245 66.596 13.5137C66.6366 13.7029 66.6726 13.8876 66.7041 14.0677C66.7357 14.2479 66.7649 14.4235 66.792 14.5947C66.8145 14.419 66.8438 14.2366 66.8798 14.0475C66.9158 13.8538 66.9541 13.6578 66.9947 13.4597C67.0397 13.2615 67.087 13.061 67.1365 12.8584C67.1906 12.6557 67.2469 12.453 67.3054 12.2503L69.0823 6.12241H70.2647L72.1159 12.2976C72.1789 12.5093 72.2375 12.7187 72.2915 12.9259C72.3456 13.1331 72.3929 13.3358 72.4334 13.534C72.4784 13.7277 72.5167 13.9146 72.5483 14.0947C72.5843 14.2704 72.6158 14.4371 72.6429 14.5947C72.6744 14.374 72.7127 14.142 72.7577 13.8988C72.8027 13.6556 72.8545 13.4011 72.9131 13.1354C72.9762 12.8696 73.0437 12.5949 73.1158 12.3111L74.7035 6.12241H75.9061ZM80.0612 5.98053C80.6332 5.98053 81.1399 6.07061 81.5813 6.25078C82.0227 6.43094 82.3673 6.69669 82.615 7.04801C82.8673 7.39483 82.9934 7.82272 82.9934 8.33169C82.9934 8.73256 82.9055 9.08389 82.7299 9.38566C82.5587 9.68294 82.3268 9.94418 82.034 10.1694C81.7412 10.3901 81.4169 10.5883 81.0611 10.7639C81.4845 10.9576 81.8651 11.1761 82.2029 11.4193C82.5452 11.6625 82.8155 11.9485 83.0136 12.2773C83.2118 12.6061 83.3109 12.9957 83.3109 13.4461C83.3109 14.0002 83.1758 14.4799 82.9055 14.8852C82.6398 15.2861 82.266 15.5946 81.784 15.8108C81.3021 16.027 80.7368 16.1351 80.0882 16.1351C79.3901 16.1351 78.7955 16.0315 78.3046 15.8243C77.8181 15.6126 77.4465 15.3109 77.1898 14.919C76.9376 14.5226 76.8114 14.0475 76.8114 13.4934C76.8114 13.0385 76.9083 12.6444 77.102 12.3111C77.2956 11.9733 77.5524 11.6828 77.8722 11.4396C78.192 11.1963 78.541 10.9914 78.9194 10.8247C78.5906 10.6446 78.2888 10.4396 78.014 10.2099C77.7438 9.98021 77.5276 9.71221 77.3654 9.40593C77.2078 9.09515 77.129 8.73481 77.129 8.32494C77.129 7.82498 77.2551 7.40159 77.5073 7.05477C77.7641 6.70344 78.1131 6.4377 78.5545 6.25753C79.0005 6.07286 79.5027 5.98053 80.0612 5.98053ZM77.9127 13.5002C77.9127 14.0047 78.0906 14.4213 78.4464 14.7501C78.8023 15.0744 79.3405 15.2365 80.0612 15.2365C80.7458 15.2365 81.275 15.0744 81.6489 14.7501C82.0227 14.4213 82.2097 13.9912 82.2097 13.4597C82.2097 13.1309 82.1241 12.8426 81.9529 12.5949C81.7818 12.3426 81.5385 12.1174 81.2232 11.9192C80.908 11.7211 80.5364 11.5409 80.1085 11.3787L79.8652 11.2909C79.4509 11.4621 79.0973 11.6535 78.8045 11.8652C78.5163 12.0724 78.2956 12.3089 78.1424 12.5746C77.9893 12.8403 77.9127 13.1489 77.9127 13.5002ZM80.0477 6.89937C79.5162 6.89937 79.0815 7.02774 78.7437 7.28448C78.4059 7.53671 78.237 7.90155 78.237 8.37899C78.237 8.7213 78.3181 9.01182 78.4802 9.25054C78.6469 9.48475 78.8721 9.68744 79.1558 9.8586C79.4396 10.0253 79.7571 10.1806 80.1085 10.3248C80.4508 10.1806 80.7548 10.023 81.0206 9.85184C81.2863 9.67618 81.4957 9.46899 81.6489 9.23027C81.802 8.99155 81.8786 8.70554 81.8786 8.37223C81.8786 7.89479 81.7097 7.52996 81.3719 7.27772C81.0386 7.02549 80.5972 6.89937 80.0477 6.89937ZM89.5874 16L93.6412 7.14935H88.2565V6.12241H94.8438V6.98721L90.8171 16H89.5874ZM95.4721 18.6011C95.2469 18.6011 95.0487 18.5854 94.8776 18.5539C94.7064 18.5223 94.56 18.4795 94.4384 18.4255V17.4458C94.5825 17.4909 94.7379 17.5247 94.9046 17.5472C95.0712 17.5742 95.2514 17.5877 95.4451 17.5877C95.6973 17.5877 95.9293 17.5382 96.141 17.4391C96.3527 17.34 96.5216 17.1711 96.6477 16.9324C96.7738 16.6936 96.8369 16.3648 96.8369 15.946V6.12241H97.9922V15.8581C97.9922 16.4752 97.8886 16.9864 97.6814 17.3918C97.4787 17.7972 97.1882 18.0989 96.8098 18.2971C96.436 18.4998 95.9901 18.6011 95.4721 18.6011ZM103.647 16H102.492V7.13584H99.384V6.12241H106.741V7.13584H103.647V16ZM117.328 16H111.829V6.12241H117.328V7.13584H112.977V10.3315H117.078V11.3315H112.977V14.9866H117.328V16ZM122.855 8.46006C123.733 8.46006 124.398 8.67626 124.848 9.10866C125.299 9.53655 125.524 10.2257 125.524 11.1761V16H124.416V11.2504C124.416 10.6333 124.274 10.1716 123.99 9.86535C123.711 9.55907 123.281 9.40593 122.7 9.40593C121.88 9.40593 121.303 9.6379 120.97 10.1018C120.637 10.5657 120.47 11.2391 120.47 12.1219V16H119.349V8.59519H120.254L120.423 9.66267H120.484C120.641 9.40143 120.842 9.18298 121.085 9.00731C121.328 8.82715 121.601 8.69202 121.902 8.60194C122.204 8.50735 122.522 8.46006 122.855 8.46006ZM129.902 19.3241C128.929 19.3241 128.179 19.1416 127.652 18.7768C127.125 18.4165 126.861 17.9098 126.861 17.2567C126.861 16.7927 127.008 16.3964 127.301 16.0676C127.598 15.7388 128.008 15.5203 128.53 15.4122C128.337 15.3221 128.17 15.187 128.03 15.0068C127.895 14.8267 127.828 14.6195 127.828 14.3853C127.828 14.115 127.902 13.8785 128.051 13.6759C128.204 13.4687 128.436 13.2705 128.746 13.0813C128.359 12.9237 128.044 12.6579 127.801 12.2841C127.562 11.9057 127.443 11.4666 127.443 10.9666C127.443 10.4351 127.553 9.98246 127.774 9.60862C127.994 9.23027 128.314 8.942 128.733 8.74382C129.152 8.54564 129.659 8.44655 130.253 8.44655C130.384 8.44655 130.514 8.4533 130.645 8.46682C130.78 8.47583 130.908 8.49159 131.03 8.51411C131.152 8.53213 131.258 8.55465 131.348 8.58167H133.888V9.30459L132.523 9.47349C132.658 9.64916 132.771 9.86085 132.861 10.1086C132.951 10.3563 132.996 10.6311 132.996 10.9328C132.996 11.6715 132.746 12.2593 132.246 12.6962C131.746 13.1286 131.059 13.3448 130.186 13.3448C129.978 13.3448 129.767 13.3268 129.55 13.2908C129.33 13.4124 129.161 13.5475 129.044 13.6961C128.931 13.8448 128.875 14.0159 128.875 14.2096C128.875 14.3537 128.918 14.4686 129.003 14.5542C129.093 14.6397 129.222 14.7028 129.388 14.7433C129.555 14.7794 129.755 14.7974 129.99 14.7974H131.294C132.1 14.7974 132.717 14.9663 133.145 15.3041C133.577 15.6419 133.793 16.1351 133.793 16.7837C133.793 17.6035 133.46 18.2318 132.793 18.6687C132.127 19.1056 131.163 19.3241 129.902 19.3241ZM129.936 18.4458C130.548 18.4458 131.055 18.3827 131.456 18.2566C131.861 18.135 132.163 17.9571 132.361 17.7228C132.564 17.4931 132.665 17.2184 132.665 16.8986C132.665 16.6013 132.598 16.3761 132.462 16.223C132.327 16.0743 132.129 15.9752 131.868 15.9257C131.607 15.8716 131.287 15.8446 130.908 15.8446H129.625C129.291 15.8446 129.001 15.8964 128.753 16C128.506 16.1036 128.314 16.2567 128.179 16.4594C128.048 16.6621 127.983 16.9143 127.983 17.2161C127.983 17.617 128.152 17.921 128.49 18.1282C128.828 18.3399 129.309 18.4458 129.936 18.4458ZM130.226 12.5273C130.762 12.5273 131.165 12.3922 131.435 12.1219C131.706 11.8517 131.841 11.4576 131.841 10.9396C131.841 10.3856 131.703 9.9712 131.429 9.69645C131.154 9.41719 130.749 9.27756 130.213 9.27756C129.699 9.27756 129.303 9.4217 129.023 9.70996C128.749 9.99372 128.611 10.4104 128.611 10.9599C128.611 11.4643 128.751 11.8517 129.03 12.1219C129.309 12.3922 129.708 12.5273 130.226 12.5273ZM136.476 16H135.347V5.48733H136.476V16ZM141.617 8.47357C142.5 8.47357 143.155 8.67176 143.583 9.06812C144.011 9.46449 144.225 10.0973 144.225 10.9666V16H143.407L143.191 14.9055H143.137C142.93 15.1757 142.714 15.4032 142.489 15.5879C142.263 15.768 142.002 15.9054 141.705 16C141.412 16.0901 141.052 16.1351 140.624 16.1351C140.173 16.1351 139.773 16.0563 139.421 15.8987C139.074 15.741 138.8 15.5023 138.597 15.1825C138.399 14.8627 138.3 14.4573 138.3 13.9664C138.3 13.2277 138.593 12.6602 139.178 12.2638C139.764 11.8674 140.655 11.6512 141.854 11.6152L143.13 11.5612V11.1085C143.13 10.4689 142.993 10.0207 142.718 9.76401C142.444 9.50727 142.056 9.37891 141.556 9.37891C141.169 9.37891 140.8 9.43521 140.448 9.54781C140.097 9.66042 139.764 9.79329 139.448 9.94643L139.104 9.09515C139.437 8.92399 139.82 8.7776 140.252 8.65599C140.685 8.53438 141.14 8.47357 141.617 8.47357ZM143.117 12.3516L141.989 12.3989C141.065 12.435 140.414 12.5859 140.036 12.8516C139.658 13.1173 139.469 13.4934 139.469 13.9799C139.469 14.4033 139.597 14.7163 139.854 14.919C140.11 15.1217 140.451 15.223 140.874 15.223C141.531 15.223 142.07 15.0406 142.489 14.6758C142.908 14.3109 143.117 13.7637 143.117 13.034V12.3516ZM150.042 8.46006C150.92 8.46006 151.585 8.67626 152.035 9.10866C152.486 9.53655 152.711 10.2257 152.711 11.1761V16H151.603V11.2504C151.603 10.6333 151.461 10.1716 151.177 9.86535C150.898 9.55907 150.468 9.40593 149.887 9.40593C149.067 9.40593 148.49 9.6379 148.157 10.1018C147.824 10.5657 147.657 11.2391 147.657 12.1219V16H146.536V8.59519H147.441L147.61 9.66267H147.671C147.828 9.40143 148.029 9.18298 148.272 9.00731C148.515 8.82715 148.788 8.69202 149.089 8.60194C149.391 8.50735 149.709 8.46006 150.042 8.46006ZM157.656 16.1351C156.719 16.1351 155.976 15.8153 155.427 15.1757C154.882 14.5362 154.609 13.5858 154.609 12.3246C154.609 11.0499 154.889 10.0883 155.447 9.43971C156.006 8.78661 156.749 8.46006 157.677 8.46006C158.068 8.46006 158.411 8.51186 158.704 8.61545C158.996 8.71905 159.249 8.85868 159.46 9.03434C159.672 9.2055 159.85 9.40143 159.994 9.62213H160.075C160.057 9.4825 160.039 9.29108 160.021 9.04785C160.003 8.80463 159.994 8.60645 159.994 8.4533V5.48733H161.116V16H160.21L160.041 14.946H159.994C159.854 15.1667 159.676 15.3672 159.46 15.5473C159.249 15.7275 158.994 15.8716 158.697 15.9797C158.404 16.0833 158.057 16.1351 157.656 16.1351ZM157.832 15.2028C158.625 15.2028 159.186 14.9776 159.514 14.5271C159.843 14.0767 160.008 13.4079 160.008 12.5205V12.3179C160.008 11.3765 159.85 10.6536 159.535 10.1491C159.224 9.64465 158.656 9.39242 157.832 9.39242C157.143 9.39242 156.627 9.65816 156.285 10.1897C155.943 10.7166 155.771 11.4373 155.771 12.3516C155.771 13.2615 155.94 13.9641 156.278 14.4596C156.62 14.955 157.138 15.2028 157.832 15.2028Z" fill="#24AB70"/>
<path d="M4.66629 111.317V109.506C3.86756 109.488 3.1529 109.413 2.52232 109.281C1.89775 109.143 1.32722 108.96 0.810746 108.732V106.353C1.32122 106.6 1.93078 106.825 2.63943 107.029C3.34808 107.227 4.0237 107.347 4.66629 107.389V104.597C3.71742 104.224 2.95772 103.864 2.3872 103.516C1.82268 103.161 1.4143 102.771 1.16207 102.345C0.915843 101.912 0.79273 101.396 0.79273 100.795C0.79273 100.183 0.954879 99.6542 1.27918 99.2097C1.60948 98.7593 2.0659 98.399 2.64844 98.1288C3.23097 97.8585 3.90359 97.6903 4.66629 97.6243V96.246H5.90043V97.5883C6.59707 97.6123 7.24567 97.6934 7.84622 97.8315C8.45278 97.9636 9.04733 98.1588 9.62986 98.417L8.78308 100.525C8.29063 100.321 7.79517 100.162 7.29672 100.048C6.80426 99.9334 6.33883 99.8583 5.90043 99.8223V102.48C6.56704 102.726 7.20063 102.993 7.80118 103.281C8.40173 103.57 8.89118 103.936 9.26953 104.381C9.64788 104.825 9.83705 105.407 9.83705 106.128C9.83705 107.023 9.50975 107.774 8.85515 108.38C8.20655 108.987 7.22165 109.35 5.90043 109.47V111.317H4.66629ZM5.90043 107.326C6.32082 107.254 6.6301 107.131 6.82828 106.957C7.02647 106.777 7.12556 106.545 7.12556 106.263C7.12556 106.095 7.08052 105.945 6.99043 105.813C6.90035 105.681 6.76222 105.558 6.57605 105.443C6.39589 105.323 6.17068 105.203 5.90043 105.083V107.326ZM4.66629 101.975V99.8583C4.42007 99.8944 4.20987 99.9544 4.03571 100.039C3.86155 100.117 3.72943 100.219 3.63935 100.345C3.54927 100.471 3.50422 100.621 3.50422 100.795C3.50422 100.969 3.54326 101.123 3.62133 101.255C3.70541 101.387 3.83153 101.51 3.99968 101.624C4.17384 101.738 4.39605 101.855 4.66629 101.975ZM20.5029 110.245H11.2964V108.308L14.6024 104.966C15.2691 104.281 15.8035 103.711 16.2059 103.254C16.6143 102.792 16.9086 102.372 17.0887 101.993C17.2749 101.615 17.368 101.21 17.368 100.777C17.368 100.255 17.2208 99.8644 16.9266 99.6061C16.6383 99.3419 16.251 99.2097 15.7645 99.2097C15.254 99.2097 14.7586 99.3269 14.2781 99.5611C13.7977 99.7953 13.2962 100.129 12.7738 100.561L11.2604 98.7683C11.6387 98.444 12.0381 98.1378 12.4585 97.8495C12.8849 97.5612 13.3773 97.33 13.9358 97.1559C14.5003 96.9757 15.176 96.8856 15.9627 96.8856C16.8275 96.8856 17.5692 97.0418 18.1877 97.354C18.8123 97.6663 19.2928 98.0927 19.6291 98.6332C19.9654 99.1677 20.1335 99.7743 20.1335 100.453C20.1335 101.18 19.9894 101.843 19.7011 102.444C19.4129 103.044 18.9925 103.639 18.44 104.227C17.8935 104.816 17.2329 105.468 16.4581 106.182L14.7646 107.777V107.903H20.5029V110.245ZM30.9885 103.66C30.9885 104.723 30.9044 105.672 30.7363 106.506C30.5741 107.341 30.3099 108.05 29.9436 108.632C29.5832 109.215 29.1088 109.659 28.5202 109.966C27.9317 110.272 27.217 110.425 26.3763 110.425C25.3193 110.425 24.4515 110.158 23.7729 109.623C23.0943 109.083 22.5928 108.308 22.2685 107.299C21.9442 106.284 21.782 105.071 21.782 103.66C21.782 102.237 21.9292 101.02 22.2235 100.011C22.5237 98.9966 23.0102 98.2188 23.6828 97.6783C24.3554 97.1378 25.2532 96.8676 26.3763 96.8676C27.4272 96.8676 28.292 97.1378 28.9707 97.6783C29.6553 98.2128 30.1628 98.9875 30.4931 100.002C30.8234 101.011 30.9885 102.231 30.9885 103.66ZM24.5476 103.66C24.5476 104.663 24.6016 105.501 24.7097 106.173C24.8238 106.84 25.013 107.341 25.2773 107.678C25.5415 108.014 25.9078 108.182 26.3763 108.182C26.8387 108.182 27.202 108.017 27.4663 107.687C27.7365 107.35 27.9287 106.849 28.0428 106.182C28.1569 105.51 28.214 104.669 28.214 103.66C28.214 102.657 28.1569 101.819 28.0428 101.147C27.9287 100.474 27.7365 99.9694 27.4663 99.6331C27.202 99.2908 26.8387 99.1197 26.3763 99.1197C25.9078 99.1197 25.5415 99.2908 25.2773 99.6331C25.013 99.9694 24.8238 100.474 24.7097 101.147C24.6016 101.819 24.5476 102.657 24.5476 103.66ZM41.5462 103.66C41.5462 104.723 41.4622 105.672 41.294 106.506C41.1319 107.341 40.8676 108.05 40.5013 108.632C40.1409 109.215 39.6665 109.659 39.078 109.966C38.4894 110.272 37.7748 110.425 36.934 110.425C35.877 110.425 35.0092 110.158 34.3306 109.623C33.652 109.083 33.1505 108.308 32.8262 107.299C32.5019 106.284 32.3398 105.071 32.3398 103.66C32.3398 102.237 32.4869 101.02 32.7812 100.011C33.0814 98.9966 33.5679 98.2188 34.2405 97.6783C34.9131 97.1378 35.811 96.8676 36.934 96.8676C37.985 96.8676 38.8498 97.1378 39.5284 97.6783C40.213 98.2128 40.7205 98.9875 41.0508 100.002C41.3811 101.011 41.5462 102.231 41.5462 103.66ZM35.1053 103.66C35.1053 104.663 35.1594 105.501 35.2675 106.173C35.3816 106.84 35.5707 107.341 35.835 107.678C36.0992 108.014 36.4656 108.182 36.934 108.182C37.3964 108.182 37.7598 108.017 38.024 107.687C38.2942 107.35 38.4864 106.849 38.6005 106.182C38.7146 105.51 38.7717 104.669 38.7717 103.66C38.7717 102.657 38.7146 101.819 38.6005 101.147C38.4864 100.474 38.2942 99.9694 38.024 99.6331C37.7598 99.2908 37.3964 99.1197 36.934 99.1197C36.4656 99.1197 36.0992 99.2908 35.835 99.6331C35.5707 99.9694 35.3816 100.474 35.2675 101.147C35.1594 101.819 35.1053 102.657 35.1053 103.66ZM52.8877 97.0748C54.5872 97.0748 55.8274 97.4411 56.6081 98.1738C57.3888 98.9005 57.7792 99.9034 57.7792 101.183C57.7792 101.759 57.6921 102.312 57.5179 102.84C57.3438 103.363 57.0585 103.828 56.6621 104.236C56.2718 104.645 55.7493 104.969 55.0947 105.209C54.4401 105.443 53.6324 105.561 52.6715 105.561H51.4734V110.245H48.6808V97.0748H52.8877ZM52.7435 99.3629H51.4734V103.272H52.3922C52.9147 103.272 53.3681 103.203 53.7525 103.065C54.1368 102.927 54.4341 102.711 54.6443 102.417C54.8545 102.122 54.9596 101.744 54.9596 101.282C54.9596 100.633 54.7794 100.153 54.4191 99.8403C54.0588 99.522 53.5002 99.3629 52.7435 99.3629ZM64.1751 99.9664C65.5263 99.9664 66.5623 100.261 67.2829 100.849C68.0036 101.438 68.3639 102.333 68.3639 103.534V110.245H66.4451L65.9137 108.876H65.8416C65.5533 109.236 65.2591 109.53 64.9588 109.758C64.6585 109.987 64.3132 110.155 63.9228 110.263C63.5325 110.371 63.058 110.425 62.4995 110.425C61.905 110.425 61.3705 110.311 60.896 110.083C60.4276 109.855 60.0583 109.506 59.788 109.038C59.5178 108.563 59.3826 107.963 59.3826 107.236C59.3826 106.167 59.758 105.38 60.5087 104.876C61.2594 104.365 62.3854 104.083 63.8868 104.029L65.6344 103.975V103.534C65.6344 103.005 65.4963 102.618 65.22 102.372C64.9438 102.125 64.5594 102.002 64.067 102.002C63.5805 102.002 63.1031 102.071 62.6346 102.21C62.1662 102.348 61.6978 102.522 61.2293 102.732L60.3195 100.876C60.854 100.594 61.4516 100.372 62.1122 100.21C62.7788 100.048 63.4664 99.9664 64.1751 99.9664ZM65.6344 105.579L64.5714 105.615C63.6826 105.639 63.064 105.798 62.7157 106.092C62.3734 106.386 62.2022 106.774 62.2022 107.254C62.2022 107.675 62.3254 107.975 62.5716 108.155C62.8178 108.329 63.1391 108.416 63.5355 108.416C64.124 108.416 64.6195 108.242 65.0218 107.894C65.4302 107.545 65.6344 107.05 65.6344 106.407V105.579ZM76.8227 99.9845C76.9608 99.9845 77.12 99.9935 77.3001 100.011C77.4863 100.023 77.6364 100.042 77.7506 100.066L77.5434 102.642C77.4533 102.612 77.3242 102.591 77.156 102.579C76.9939 102.561 76.8527 102.552 76.7326 102.552C76.3783 102.552 76.033 102.597 75.6967 102.687C75.3664 102.777 75.0691 102.924 74.8048 103.128C74.5406 103.327 74.3304 103.591 74.1743 103.921C74.0241 104.245 73.9491 104.645 73.9491 105.119V110.245H71.2015V100.174H73.2824L73.6878 101.867H73.8229C74.0211 101.525 74.2673 101.213 74.5616 100.93C74.8619 100.642 75.2012 100.414 75.5796 100.246C75.9639 100.072 76.3783 99.9845 76.8227 99.9845ZM96.2716 110.245H92.7223L86.9931 100.282H86.912C86.936 100.696 86.957 101.114 86.975 101.534C86.9931 101.954 87.0111 102.375 87.0291 102.795C87.0471 103.209 87.0651 103.627 87.0831 104.047V110.245H84.5878V97.0748H88.1101L93.8304 106.939H93.8934C93.8814 106.53 93.8664 106.125 93.8484 105.723C93.8304 105.32 93.8123 104.918 93.7943 104.516C93.7823 104.113 93.7703 103.711 93.7583 103.309V97.0748H96.2716V110.245ZM102.127 100.174V110.245H99.3795V100.174H102.127ZM100.758 96.228C101.166 96.228 101.517 96.3241 101.812 96.5163C102.106 96.7024 102.253 97.0538 102.253 97.5702C102.253 98.0807 102.106 98.435 101.812 98.6332C101.517 98.8254 101.166 98.9215 100.758 98.9215C100.343 98.9215 99.989 98.8254 99.6947 98.6332C99.4065 98.435 99.2624 98.0807 99.2624 97.5702C99.2624 97.0538 99.4065 96.7024 99.6947 96.5163C99.989 96.3241 100.343 96.228 100.758 96.228ZM107.964 114.677C106.559 114.677 105.484 114.431 104.739 113.938C104.001 113.452 103.631 112.767 103.631 111.884C103.631 111.278 103.821 110.77 104.199 110.362C104.577 109.954 105.133 109.662 105.865 109.488C105.583 109.368 105.337 109.173 105.127 108.903C104.917 108.626 104.811 108.335 104.811 108.029C104.811 107.645 104.923 107.326 105.145 107.074C105.367 106.816 105.688 106.564 106.109 106.317C105.58 106.089 105.16 105.723 104.847 105.218C104.541 104.714 104.388 104.119 104.388 103.435C104.388 102.702 104.547 102.08 104.866 101.57C105.19 101.053 105.658 100.66 106.271 100.39C106.889 100.12 107.64 99.9845 108.523 99.9845C108.709 99.9845 108.925 99.9965 109.171 100.02C109.418 100.045 109.643 100.072 109.847 100.102C110.057 100.132 110.198 100.156 110.27 100.174H113.784V101.57L112.207 101.975C112.351 102.197 112.459 102.435 112.532 102.687C112.604 102.939 112.64 103.206 112.64 103.489C112.64 104.57 112.261 105.413 111.505 106.02C110.754 106.621 109.709 106.921 108.37 106.921C108.051 106.903 107.751 106.879 107.469 106.849C107.331 106.957 107.226 107.071 107.154 107.191C107.082 107.311 107.046 107.437 107.046 107.569C107.046 107.702 107.1 107.813 107.208 107.903C107.322 107.987 107.49 108.053 107.712 108.101C107.94 108.143 108.223 108.164 108.559 108.164H110.27C111.376 108.164 112.216 108.401 112.793 108.876C113.375 109.35 113.667 110.047 113.667 110.966C113.667 112.143 113.174 113.055 112.189 113.704C111.21 114.353 109.802 114.677 107.964 114.677ZM108.081 112.884C108.736 112.884 109.298 112.821 109.766 112.695C110.24 112.575 110.604 112.401 110.856 112.173C111.108 111.95 111.234 111.683 111.234 111.371C111.234 111.119 111.159 110.918 111.009 110.767C110.865 110.623 110.643 110.521 110.343 110.461C110.048 110.401 109.67 110.371 109.208 110.371H107.784C107.448 110.371 107.145 110.425 106.874 110.533C106.61 110.641 106.4 110.791 106.244 110.984C106.088 111.182 106.01 111.41 106.01 111.668C106.01 112.047 106.19 112.344 106.55 112.56C106.916 112.776 107.427 112.884 108.081 112.884ZM108.523 105.245C109.039 105.245 109.418 105.086 109.658 104.768C109.898 104.45 110.018 104.017 110.018 103.471C110.018 102.864 109.892 102.411 109.64 102.11C109.394 101.804 109.021 101.651 108.523 101.651C108.018 101.651 107.64 101.804 107.388 102.11C107.136 102.411 107.009 102.864 107.009 103.471C107.009 104.017 107.133 104.45 107.379 104.768C107.631 105.086 108.012 105.245 108.523 105.245ZM118.198 96.228V99.0836C118.198 99.5821 118.18 100.057 118.144 100.507C118.114 100.957 118.09 101.276 118.072 101.462H118.216C118.432 101.114 118.687 100.831 118.982 100.615C119.282 100.399 119.612 100.24 119.972 100.138C120.333 100.036 120.72 99.9845 121.134 99.9845C121.861 99.9845 122.495 100.114 123.035 100.372C123.576 100.624 123.996 101.023 124.296 101.57C124.597 102.11 124.747 102.813 124.747 103.678V110.245H121.999V104.362C121.999 103.642 121.867 103.098 121.603 102.732C121.339 102.366 120.93 102.182 120.378 102.182C119.825 102.182 119.39 102.312 119.072 102.57C118.753 102.822 118.528 103.197 118.396 103.696C118.264 104.188 118.198 104.792 118.198 105.507V110.245H115.45V96.228H118.198ZM131.818 108.236C132.119 108.236 132.41 108.206 132.692 108.146C132.98 108.086 133.266 108.011 133.548 107.921V109.966C133.254 110.098 132.887 110.206 132.449 110.29C132.016 110.38 131.542 110.425 131.026 110.425C130.425 110.425 129.885 110.329 129.404 110.137C128.93 109.939 128.554 109.599 128.278 109.119C128.008 108.632 127.873 107.957 127.873 107.092V102.237H126.557V101.074L128.071 100.156L128.864 98.0297H130.62V100.174H133.44V102.237H130.62V107.092C130.62 107.476 130.728 107.765 130.945 107.957C131.167 108.143 131.458 108.236 131.818 108.236Z" fill="#222222"/>
<path d="M18.6336 47.9128C18.6336 50.1379 18.2193 51.9981 17.3905 53.4935C16.5617 54.9798 15.3591 56.1014 13.7827 56.8581C12.2062 57.6057 10.3055 57.9796 8.08044 57.9796H2.59439V38.2244H8.67498C10.7199 38.2244 12.4855 38.5937 13.9719 39.3324C15.4582 40.0621 16.6068 41.1476 17.4175 42.5889C18.2283 44.0212 18.6336 45.7959 18.6336 47.9128ZM15.2555 48.0074C15.2555 46.3859 14.9988 45.0527 14.4853 44.0077C13.9809 42.9628 13.2332 42.1881 12.2423 41.6836C11.2604 41.1701 10.0487 40.9134 8.60742 40.9134H5.83737V55.2636H8.13449C10.5217 55.2636 12.3053 54.6555 13.4854 53.4394C14.6655 52.2233 15.2555 50.4126 15.2555 48.0074ZM28.4302 42.7376C30.3219 42.7376 31.7497 43.1564 32.7136 43.9942C33.6865 44.832 34.1729 46.1382 34.1729 47.9128V57.9796H31.9164L31.3083 55.8581H31.2002C30.7768 56.3986 30.3399 56.8445 29.8895 57.1959C29.4391 57.5472 28.9166 57.8084 28.3221 57.9796C27.7365 58.1597 27.0204 58.2498 26.1736 58.2498C25.2818 58.2498 24.4845 58.0877 23.7819 57.7634C23.0792 57.4301 22.5252 56.9256 22.1199 56.25C21.7145 55.5744 21.5118 54.7186 21.5118 53.6826C21.5118 52.1422 22.0838 50.9846 23.2279 50.2099C24.3809 49.4352 26.1195 49.0073 28.4437 48.9263L31.0381 48.8317V48.0479C31.0381 47.012 30.7948 46.2733 30.3084 45.8319C29.831 45.3905 29.1553 45.1698 28.2815 45.1698C27.5338 45.1698 26.8087 45.2779 26.106 45.4941C25.4034 45.7103 24.7187 45.976 24.0521 46.2913L23.0252 44.0483C23.7549 43.6609 24.5836 43.3456 25.5115 43.1024C26.4483 42.8592 27.4212 42.7376 28.4302 42.7376ZM31.0246 50.8315L29.0923 50.8991C27.5068 50.9531 26.3943 51.2234 25.7547 51.7098C25.1151 52.1963 24.7953 52.8629 24.7953 53.7097C24.7953 54.4483 25.016 54.9888 25.4574 55.3311C25.8988 55.6645 26.4799 55.8311 27.2005 55.8311C28.2995 55.8311 29.2094 55.5203 29.93 54.8987C30.6597 54.2682 31.0246 53.3448 31.0246 52.1287V50.8315ZM46.4152 42.7376C48.0998 42.7376 49.4105 43.1745 50.3473 44.0483C51.2932 44.9131 51.7661 46.3048 51.7661 48.2236V57.9796H48.5907V48.8182C48.5907 47.6561 48.352 46.7868 47.8746 46.2103C47.3971 45.6247 46.6584 45.3319 45.6585 45.3319C44.2082 45.3319 43.1993 45.7779 42.6317 46.6697C42.0732 47.5615 41.794 48.8542 41.794 50.5477V57.9796H38.6185V43.0213H41.0913L41.5372 45.0482H41.7129C42.0372 44.5257 42.4381 44.0978 42.9155 43.7645C43.4019 43.4222 43.9424 43.1655 44.537 42.9943C45.1405 42.8231 45.7666 42.7376 46.4152 42.7376ZM69.2512 43.0213V57.9796H66.7514L66.319 55.9662H66.1434C65.8281 56.4797 65.4272 56.9076 64.9408 57.2499C64.4543 57.5832 63.9138 57.8309 63.3193 57.9931C62.7247 58.1643 62.0986 58.2498 61.441 58.2498C60.315 58.2498 59.3511 58.0607 58.5494 57.6823C57.7567 57.295 57.1486 56.7004 56.7252 55.8987C56.3018 55.0969 56.0901 54.061 56.0901 52.7908V43.0213H59.2791V52.1963C59.2791 53.3583 59.5133 54.2276 59.9817 54.8042C60.4591 55.3807 61.1978 55.669 62.1977 55.669C63.1616 55.669 63.9273 55.4708 64.4949 55.0744C65.0624 54.678 65.4632 54.0925 65.6975 53.3178C65.9407 52.5431 66.0623 51.5927 66.0623 50.4667V43.0213H69.2512ZM76.9803 36.9542V42.0214C76.9803 42.6069 76.9623 43.1835 76.9263 43.751C76.8993 44.3095 76.8722 44.7464 76.8452 45.0617H76.9803C77.3857 44.4131 77.9487 43.8681 78.6694 43.4267C79.3991 42.9763 80.3314 42.7511 81.4665 42.7511C83.2411 42.7511 84.6689 43.4042 85.7499 44.7104C86.8309 46.0076 87.3714 47.9308 87.3714 50.4802C87.3714 52.1737 87.1237 53.5971 86.6282 54.7501C86.1328 55.9032 85.4346 56.777 84.5338 57.3715C83.642 57.9571 82.5925 58.2498 81.3854 58.2498C80.2504 58.2498 79.3315 58.0426 78.6289 57.6283C77.9352 57.2049 77.3902 56.7139 76.9939 56.1554H76.7641L76.1831 57.9796H73.8049V36.9542H76.9803ZM80.6287 45.3319C79.7279 45.3319 79.0117 45.5121 78.4802 45.8724C77.9577 46.2328 77.5794 46.7733 77.3452 47.4939C77.111 48.2056 76.9894 49.1109 76.9803 50.2099V50.4937C76.9803 52.1602 77.2416 53.4349 77.7641 54.3177C78.2956 55.2005 79.2594 55.6419 80.6557 55.6419C81.7637 55.6419 82.615 55.196 83.2096 54.3042C83.8041 53.4034 84.1014 52.1152 84.1014 50.4396C84.1014 48.7461 83.8041 47.4714 83.2096 46.6156C82.624 45.7598 81.7637 45.3319 80.6287 45.3319ZM94.2222 43.0213V57.9796H91.0468V43.0213H94.2222ZM92.6548 37.292C93.1412 37.292 93.5601 37.4227 93.9114 37.6839C94.2718 37.9451 94.4519 38.3956 94.4519 39.0351C94.4519 39.6657 94.2718 40.1161 93.9114 40.3864C93.5601 40.6476 93.1412 40.7783 92.6548 40.7783C92.1503 40.7783 91.7224 40.6476 91.3711 40.3864C91.0288 40.1161 90.8576 39.6657 90.8576 39.0351C90.8576 38.3956 91.0288 37.9451 91.3711 37.6839C91.7224 37.4227 92.1503 37.292 92.6548 37.292ZM111.815 43.0213V57.9796H109.316L108.883 55.9662H108.708C108.392 56.4797 107.991 56.9076 107.505 57.2499C107.018 57.5832 106.478 57.8309 105.883 57.9931C105.289 58.1643 104.663 58.2498 104.005 58.2498C102.879 58.2498 101.915 58.0607 101.114 57.6823C100.321 57.295 99.7128 56.7004 99.2894 55.8987C98.866 55.0969 98.6543 54.061 98.6543 52.7908V43.0213H101.843V52.1963C101.843 53.3583 102.077 54.2276 102.546 54.8042C103.023 55.3807 103.762 55.669 104.762 55.669C105.726 55.669 106.492 55.4708 107.059 55.0744C107.627 54.678 108.027 54.0925 108.262 53.3178C108.505 52.5431 108.626 51.5927 108.626 50.4667V43.0213H111.815ZM126.422 53.7097C126.422 54.6916 126.184 55.5203 125.706 56.1959C125.229 56.8716 124.531 57.385 123.612 57.7364C122.702 58.0787 121.585 58.2498 120.261 58.2498C119.216 58.2498 118.315 58.1733 117.558 58.0201C116.811 57.876 116.103 57.6508 115.437 57.3445V54.6015C116.148 54.9348 116.946 55.223 117.828 55.4663C118.72 55.7095 119.563 55.8311 120.355 55.8311C121.4 55.8311 122.152 55.669 122.612 55.3447C123.071 55.0114 123.301 54.5699 123.301 54.0204C123.301 53.6961 123.206 53.4079 123.017 53.1556C122.837 52.8944 122.495 52.6287 121.99 52.3584C121.495 52.0792 120.765 51.7458 119.801 51.3585C118.855 50.9801 118.058 50.6018 117.41 50.2234C116.761 49.8451 116.27 49.3902 115.937 48.8587C115.603 48.3182 115.437 47.6291 115.437 46.7913C115.437 45.4671 115.959 44.4626 117.004 43.778C118.058 43.0844 119.45 42.7376 121.18 42.7376C122.098 42.7376 122.963 42.8321 123.774 43.0213C124.594 43.2015 125.395 43.4672 126.179 43.8186L125.179 46.2103C124.504 45.913 123.823 45.6698 123.139 45.4806C122.463 45.2824 121.774 45.1833 121.071 45.1833C120.252 45.1833 119.626 45.3094 119.193 45.5617C118.77 45.8139 118.558 46.1742 118.558 46.6427C118.558 46.994 118.662 47.2912 118.869 47.5345C119.076 47.7777 119.432 48.0209 119.936 48.2641C120.45 48.5074 121.162 48.8091 122.071 49.1695C122.963 49.5118 123.733 49.8721 124.382 50.2505C125.04 50.6198 125.544 51.0747 125.895 51.6152C126.247 52.1557 126.422 52.8539 126.422 53.7097ZM152.947 57.9796H149.718V49.0614H140.61V57.9796H137.367V38.2244H140.61V46.3048H149.718V38.2244H152.947V57.9796ZM171.094 50.4667C171.094 51.7098 170.932 52.8133 170.608 53.7772C170.284 54.7411 169.811 55.5564 169.189 56.223C168.568 56.8806 167.82 57.385 166.946 57.7364C166.072 58.0787 165.086 58.2498 163.987 58.2498C162.96 58.2498 162.019 58.0787 161.163 57.7364C160.307 57.385 159.564 56.8806 158.933 56.223C158.312 55.5564 157.83 54.7411 157.487 53.7772C157.145 52.8133 156.974 51.7098 156.974 50.4667C156.974 48.8182 157.258 47.4219 157.825 46.2778C158.402 45.1248 159.222 44.2464 160.285 43.6429C161.347 43.0393 162.613 42.7376 164.082 42.7376C165.46 42.7376 166.676 43.0393 167.73 43.6429C168.784 44.2464 169.608 45.1248 170.203 46.2778C170.797 47.4309 171.094 48.8272 171.094 50.4667ZM160.244 50.4667C160.244 51.5567 160.375 52.489 160.636 53.2637C160.906 54.0385 161.32 54.633 161.879 55.0474C162.437 55.4528 163.158 55.6554 164.041 55.6554C164.924 55.6554 165.644 55.4528 166.203 55.0474C166.761 54.633 167.171 54.0385 167.433 53.2637C167.694 52.489 167.824 51.5567 167.824 50.4667C167.824 49.3767 167.694 48.4533 167.433 47.6966C167.171 46.9309 166.761 46.3499 166.203 45.9535C165.644 45.5481 164.919 45.3455 164.027 45.3455C162.712 45.3455 161.753 45.7869 161.149 46.6697C160.546 47.5525 160.244 48.8182 160.244 50.4667ZM180.31 55.6825C180.724 55.6825 181.134 55.6464 181.54 55.5744C181.945 55.4933 182.314 55.3987 182.648 55.2906V57.6958C182.296 57.849 181.841 57.9796 181.283 58.0877C180.724 58.1958 180.143 58.2498 179.54 58.2498C178.693 58.2498 177.932 58.1102 177.256 57.8309C176.581 57.5427 176.045 57.0517 175.648 56.3581C175.252 55.6645 175.054 54.7051 175.054 53.4799V45.44H173.013V44.0212L175.202 42.8997L176.243 39.6973H178.243V43.0213H182.526V45.44H178.243V53.4394C178.243 54.1961 178.432 54.7591 178.81 55.1285C179.188 55.4978 179.688 55.6825 180.31 55.6825ZM191.647 42.7376C192.98 42.7376 194.124 43.0123 195.079 43.5618C196.034 44.1113 196.768 44.8905 197.282 45.8995C197.795 46.9084 198.052 48.1155 198.052 49.5208V51.2234H188.066C188.102 52.6737 188.489 53.7907 189.228 54.5745C189.976 55.3582 191.021 55.75 192.363 55.75C193.318 55.75 194.174 55.6599 194.93 55.4798C195.696 55.2906 196.484 55.0159 197.295 54.6555V57.2364C196.547 57.5877 195.786 57.8445 195.011 58.0066C194.237 58.1688 193.309 58.2498 192.228 58.2498C190.76 58.2498 189.467 57.9661 188.35 57.3985C187.242 56.822 186.373 55.9662 185.742 54.8312C185.12 53.6961 184.81 52.2863 184.81 50.6018C184.81 48.9263 185.093 47.5029 185.661 46.3319C186.228 45.1608 187.026 44.269 188.053 43.6564C189.08 43.0438 190.278 42.7376 191.647 42.7376ZM191.647 45.1293C190.647 45.1293 189.836 45.4536 189.215 46.1022C188.602 46.7507 188.242 47.7011 188.134 48.9533H194.944C194.935 48.2056 194.809 47.5435 194.566 46.9669C194.331 46.3904 193.971 45.94 193.485 45.6157C193.007 45.2914 192.395 45.1293 191.647 45.1293ZM204.821 57.9796H201.633V36.9542H204.821V57.9796ZM222.428 38.2244C224.131 38.2244 225.536 38.4316 226.644 38.846C227.761 39.2604 228.59 39.8909 229.13 40.7377C229.68 41.5845 229.955 42.661 229.955 43.9672C229.955 44.9401 229.774 45.7688 229.414 46.4535C229.054 47.1381 228.581 47.7056 227.995 48.156C227.41 48.6065 226.784 48.9668 226.117 49.237L231.725 57.9796H228.063L223.293 50.0613H220.118V57.9796H216.875V38.2244H222.428ZM222.212 40.9269H220.118V47.3858H222.361C223.865 47.3858 224.955 47.1066 225.631 46.5481C226.315 45.9895 226.658 45.1653 226.658 44.0753C226.658 42.9312 226.293 42.1205 225.563 41.643C224.842 41.1656 223.725 40.9269 222.212 40.9269ZM240.184 42.7376C241.517 42.7376 242.661 43.0123 243.616 43.5618C244.571 44.1113 245.305 44.8905 245.818 45.8995C246.332 46.9084 246.588 48.1155 246.588 49.5208V51.2234H236.603C236.639 52.6737 237.026 53.7907 237.765 54.5745C238.513 55.3582 239.557 55.75 240.9 55.75C241.855 55.75 242.71 55.6599 243.467 55.4798C244.233 55.2906 245.021 55.0159 245.832 54.6555V57.2364C245.084 57.5877 244.323 57.8445 243.548 58.0066C242.773 58.1688 241.846 58.2498 240.765 58.2498C239.296 58.2498 238.004 57.9661 236.887 57.3985C235.778 56.822 234.909 55.9662 234.279 54.8312C233.657 53.6961 233.346 52.2863 233.346 50.6018C233.346 48.9263 233.63 47.5029 234.198 46.3319C234.765 45.1608 235.562 44.269 236.589 43.6564C237.616 43.0438 238.814 42.7376 240.184 42.7376ZM240.184 45.1293C239.184 45.1293 238.373 45.4536 237.751 46.1022C237.139 46.7507 236.778 47.7011 236.67 48.9533H243.481C243.472 48.2056 243.345 47.5435 243.102 46.9669C242.868 46.3904 242.508 45.94 242.021 45.6157C241.544 45.2914 240.931 45.1293 240.184 45.1293ZM254.439 64.6277C252.412 64.6277 250.858 64.2629 249.777 63.5332C248.696 62.8035 248.156 61.7811 248.156 60.4659C248.156 59.547 248.444 58.7678 249.021 58.1282C249.597 57.4976 250.421 57.0607 251.493 56.8175C251.088 56.6373 250.737 56.3581 250.439 55.9797C250.151 55.5924 250.007 55.1645 250.007 54.6961C250.007 54.1375 250.165 53.6601 250.48 53.2637C250.795 52.8674 251.268 52.4845 251.899 52.1152C251.115 51.7819 250.485 51.2414 250.007 50.4937C249.539 49.737 249.304 48.8497 249.304 47.8317C249.304 46.7507 249.534 45.8319 249.994 45.0752C250.453 44.3095 251.124 43.7285 252.007 43.3321C252.89 42.9267 253.957 42.724 255.209 42.724C255.48 42.724 255.772 42.7421 256.088 42.7781C256.412 42.8051 256.709 42.8412 256.979 42.8862C257.259 42.9222 257.47 42.9628 257.615 43.0078H262.79V44.7779L260.25 45.2509C260.493 45.5932 260.686 45.985 260.831 46.4265C260.975 46.8588 261.047 47.3318 261.047 47.8453C261.047 49.3947 260.511 50.6153 259.439 51.5071C258.376 52.3899 256.907 52.8313 255.034 52.8313C254.583 52.8133 254.146 52.7773 253.723 52.7232C253.399 52.9214 253.151 53.1421 252.98 53.3854C252.809 53.6196 252.723 53.8853 252.723 54.1826C252.723 54.4258 252.809 54.624 252.98 54.7771C253.151 54.9213 253.403 55.0294 253.737 55.1014C254.079 55.1735 254.493 55.2095 254.98 55.2095H257.561C259.2 55.2095 260.452 55.5564 261.317 56.25C262.182 56.9436 262.614 57.9616 262.614 59.3038C262.614 61.0064 261.912 62.3171 260.506 63.2359C259.101 64.1638 257.079 64.6277 254.439 64.6277ZM254.561 62.3982C255.669 62.3982 256.601 62.2901 257.358 62.0739C258.115 61.8577 258.687 61.5469 259.074 61.1415C259.461 60.7451 259.655 60.2722 259.655 59.7227C259.655 59.2362 259.533 58.8624 259.29 58.6012C259.047 58.3399 258.682 58.1597 258.196 58.0607C257.709 57.9616 257.106 57.912 256.385 57.912H254.034C253.448 57.912 252.93 58.0021 252.48 58.1823C252.029 58.3714 251.678 58.6417 251.426 58.993C251.183 59.3443 251.061 59.7677 251.061 60.2632C251.061 60.9478 251.363 61.4748 251.966 61.8441C252.579 62.2135 253.444 62.3982 254.561 62.3982ZM255.182 50.7504C256.11 50.7504 256.799 50.4982 257.25 49.9937C257.7 49.4803 257.925 48.7596 257.925 47.8317C257.925 46.8228 257.691 46.0661 257.223 45.5617C256.763 45.0572 256.079 44.805 255.169 44.805C254.277 44.805 253.597 45.0617 253.128 45.5752C252.669 46.0886 252.439 46.8498 252.439 47.8588C252.439 48.7686 252.669 49.4803 253.128 49.9937C253.597 50.4982 254.282 50.7504 255.182 50.7504ZM271.478 42.7376C272.812 42.7376 273.956 43.0123 274.91 43.5618C275.865 44.1113 276.6 44.8905 277.113 45.8995C277.626 46.9084 277.883 48.1155 277.883 49.5208V51.2234H267.898C267.934 52.6737 268.321 53.7907 269.06 54.5745C269.807 55.3582 270.852 55.75 272.194 55.75C273.149 55.75 274.005 55.6599 274.762 55.4798C275.528 55.2906 276.316 55.0159 277.127 54.6555V57.2364C276.379 57.5877 275.618 57.8445 274.843 58.0066C274.068 58.1688 273.14 58.2498 272.059 58.2498C270.591 58.2498 269.298 57.9661 268.181 57.3985C267.073 56.822 266.204 55.9662 265.573 54.8312C264.952 53.6961 264.641 52.2863 264.641 50.6018C264.641 48.9263 264.925 47.5029 265.492 46.3319C266.06 45.1608 266.857 44.269 267.884 43.6564C268.911 43.0438 270.109 42.7376 271.478 42.7376ZM271.478 45.1293C270.478 45.1293 269.668 45.4536 269.046 46.1022C268.434 46.7507 268.073 47.7011 267.965 48.9533H274.775C274.766 48.2056 274.64 47.5435 274.397 46.9669C274.163 46.3904 273.802 45.94 273.316 45.6157C272.839 45.2914 272.226 45.1293 271.478 45.1293ZM289.261 42.7376C290.945 42.7376 292.256 43.1745 293.193 44.0483C294.139 44.9131 294.612 46.3048 294.612 48.2236V57.9796H291.436V48.8182C291.436 47.6561 291.197 46.7868 290.72 46.2103C290.243 45.6247 289.504 45.3319 288.504 45.3319C287.054 45.3319 286.045 45.7779 285.477 46.6697C284.919 47.5615 284.639 48.8542 284.639 50.5477V57.9796H281.464V43.0213H283.937L284.383 45.0482H284.558C284.883 44.5257 285.284 44.0978 285.761 43.7645C286.247 43.4222 286.788 43.1655 287.382 42.9943C287.986 42.8231 288.612 42.7376 289.261 42.7376ZM304.624 55.6825C305.039 55.6825 305.449 55.6464 305.854 55.5744C306.259 55.4933 306.629 55.3987 306.962 55.2906V57.6958C306.611 57.849 306.156 57.9796 305.597 58.0877C305.039 58.1958 304.458 58.2498 303.854 58.2498C303.007 58.2498 302.246 58.1102 301.571 57.8309C300.895 57.5427 300.359 57.0517 299.963 56.3581C299.566 55.6645 299.368 54.7051 299.368 53.4799V45.44H297.328V44.0212L299.517 42.8997L300.557 39.6973H302.557V43.0213H306.84V45.44H302.557V53.4394C302.557 54.1961 302.746 54.7591 303.124 55.1285C303.503 55.4978 304.003 55.6825 304.624 55.6825ZM320.056 53.7097C320.056 54.6916 319.817 55.5203 319.339 56.1959C318.862 56.8716 318.164 57.385 317.245 57.7364C316.335 58.0787 315.218 58.2498 313.894 58.2498C312.849 58.2498 311.948 58.1733 311.191 58.0201C310.444 57.876 309.737 57.6508 309.07 57.3445V54.6015C309.782 54.9348 310.579 55.223 311.462 55.4663C312.353 55.7095 313.196 55.8311 313.988 55.8311C315.033 55.8311 315.786 55.669 316.245 55.3447C316.704 55.0114 316.934 54.5699 316.934 54.0204C316.934 53.6961 316.84 53.4079 316.65 53.1556C316.47 52.8944 316.128 52.6287 315.623 52.3584C315.128 52.0792 314.398 51.7458 313.434 51.3585C312.489 50.9801 311.691 50.6018 311.043 50.2234C310.394 49.8451 309.903 49.3902 309.57 48.8587C309.237 48.3182 309.07 47.6291 309.07 46.7913C309.07 45.4671 309.592 44.4626 310.637 43.778C311.691 43.0844 313.083 42.7376 314.813 42.7376C315.732 42.7376 316.596 42.8321 317.407 43.0213C318.227 43.2015 319.029 43.4672 319.812 43.8186L318.812 46.2103C318.137 45.913 317.457 45.6698 316.772 45.4806C316.096 45.2824 315.407 45.1833 314.705 45.1833C313.885 45.1833 313.259 45.3094 312.826 45.5617C312.403 45.8139 312.191 46.1742 312.191 46.6427C312.191 46.994 312.295 47.2912 312.502 47.5345C312.709 47.7777 313.065 48.0209 313.57 48.2641C314.083 48.5074 314.795 48.8091 315.705 49.1695C316.596 49.5118 317.367 49.8721 318.015 50.2505C318.673 50.6198 319.177 51.0747 319.529 51.6152C319.88 52.1557 320.056 52.8539 320.056 53.7097ZM336.743 38.2244C339.293 38.2244 341.153 38.7469 342.324 39.7918C343.495 40.8368 344.081 42.3007 344.081 44.1834C344.081 45.0392 343.946 45.8544 343.675 46.6291C343.414 47.3948 342.982 48.075 342.378 48.6695C341.775 49.2551 340.977 49.719 339.986 50.0613C339.004 50.4036 337.793 50.5748 336.352 50.5748H334.244V57.9796H331.001V38.2244H336.743ZM336.527 40.9134H334.244V47.8723H336.014C337.032 47.8723 337.896 47.7552 338.608 47.521C339.32 47.2777 339.86 46.8949 340.23 46.3724C340.599 45.8499 340.784 45.1608 340.784 44.305C340.784 43.1609 340.437 42.3097 339.743 41.7511C339.059 41.1926 337.987 40.9134 336.527 40.9134ZM353.566 42.7376C355.458 42.7376 356.886 43.1564 357.85 43.9942C358.823 44.832 359.309 46.1382 359.309 47.9128V57.9796H357.053L356.445 55.8581H356.336C355.913 56.3986 355.476 56.8445 355.026 57.1959C354.575 57.5472 354.053 57.8084 353.458 57.9796C352.873 58.1597 352.157 58.2498 351.31 58.2498C350.418 58.2498 349.621 58.0877 348.918 57.7634C348.215 57.4301 347.661 56.9256 347.256 56.25C346.851 55.5744 346.648 54.7186 346.648 53.6826C346.648 52.1422 347.22 50.9846 348.364 50.2099C349.517 49.4352 351.256 49.0073 353.58 48.9263L356.174 48.8317V48.0479C356.174 47.012 355.931 46.2733 355.445 45.8319C354.967 45.3905 354.292 45.1698 353.418 45.1698C352.67 45.1698 351.945 45.2779 351.242 45.4941C350.54 45.7103 349.855 45.976 349.188 46.2913L348.161 44.0483C348.891 43.6609 349.72 43.3456 350.648 43.1024C351.585 42.8592 352.557 42.7376 353.566 42.7376ZM356.161 50.8315L354.228 50.8991C352.643 50.9531 351.53 51.2234 350.891 51.7098C350.251 52.1963 349.932 52.8629 349.932 53.7097C349.932 54.4483 350.152 54.9888 350.594 55.3311C351.035 55.6645 351.616 55.8311 352.337 55.8311C353.436 55.8311 354.346 55.5203 355.066 54.8987C355.796 54.2682 356.161 53.3448 356.161 52.1287V50.8315ZM371.335 42.7376C371.587 42.7376 371.862 42.7511 372.16 42.7781C372.457 42.8051 372.714 42.8412 372.93 42.8862L372.632 45.8589C372.443 45.8049 372.209 45.7643 371.93 45.7373C371.66 45.7103 371.416 45.6968 371.2 45.6968C370.633 45.6968 370.092 45.7914 369.579 45.9805C369.065 46.1607 368.61 46.44 368.214 46.8183C367.818 47.1877 367.507 47.6516 367.282 48.2101C367.056 48.7686 366.944 49.4172 366.944 50.1559V57.9796H363.755V43.0213H366.241L366.673 45.6562H366.822C367.119 45.1248 367.489 44.6383 367.93 44.1969C368.372 43.7555 368.876 43.4042 369.444 43.1429C370.02 42.8727 370.651 42.7376 371.335 42.7376ZM378.875 36.9542V47.1156C378.875 47.575 378.857 48.0795 378.821 48.629C378.785 49.1695 378.749 49.6784 378.713 50.1559H378.781C379.015 49.8406 379.294 49.4713 379.618 49.0479C379.952 48.6245 380.267 48.2551 380.564 47.9398L385.131 43.0213H388.78L382.794 49.4532L389.172 57.9796H385.442L380.659 51.4125L378.875 52.9394V57.9796H375.7V36.9542H378.875Z" fill="#222222"/>
<path d="M331.901 107.191H329.928V110.245H328.469V107.191H322.1V105.93L328.37 97.0027H329.928V105.84H331.901V107.191ZM328.469 105.84V101.534C328.469 101.204 328.472 100.906 328.478 100.642C328.484 100.372 328.493 100.123 328.505 99.8944C328.517 99.6602 328.526 99.438 328.532 99.2278C328.544 99.0176 328.553 98.8104 328.559 98.6062H328.487C328.373 98.8464 328.241 99.1017 328.091 99.3719C327.947 99.6362 327.799 99.8734 327.649 100.084L323.587 105.84H328.469ZM333.613 109.308C333.613 108.888 333.715 108.59 333.919 108.416C334.123 108.236 334.373 108.146 334.667 108.146C334.973 108.146 335.231 108.236 335.442 108.416C335.652 108.59 335.757 108.888 335.757 109.308C335.757 109.722 335.652 110.026 335.442 110.218C335.231 110.404 334.973 110.497 334.667 110.497C334.373 110.497 334.123 110.404 333.919 110.218C333.715 110.026 333.613 109.722 333.613 109.308ZM342.369 96.8856C343.132 96.8856 343.807 97.0058 344.396 97.246C344.984 97.4862 345.444 97.8405 345.774 98.3089C346.11 98.7714 346.278 99.3419 346.278 100.021C346.278 100.555 346.161 101.023 345.927 101.426C345.699 101.822 345.39 102.171 344.999 102.471C344.609 102.765 344.177 103.029 343.702 103.264C344.267 103.522 344.774 103.813 345.225 104.137C345.681 104.462 346.041 104.843 346.305 105.281C346.57 105.72 346.702 106.239 346.702 106.84C346.702 107.578 346.522 108.218 346.161 108.759C345.807 109.293 345.309 109.704 344.666 109.993C344.023 110.281 343.27 110.425 342.405 110.425C341.474 110.425 340.681 110.287 340.027 110.011C339.378 109.728 338.883 109.326 338.54 108.804C338.204 108.275 338.036 107.642 338.036 106.903C338.036 106.296 338.165 105.771 338.423 105.326C338.681 104.876 339.024 104.489 339.45 104.164C339.877 103.84 340.342 103.567 340.846 103.345C340.408 103.104 340.006 102.831 339.639 102.525C339.279 102.219 338.991 101.861 338.775 101.453C338.564 101.038 338.459 100.558 338.459 100.012C338.459 99.3449 338.627 98.7804 338.964 98.318C339.306 97.8495 339.771 97.4952 340.36 97.255C340.955 97.0088 341.624 96.8856 342.369 96.8856ZM339.504 106.912C339.504 107.584 339.741 108.14 340.216 108.578C340.69 109.011 341.408 109.227 342.369 109.227C343.282 109.227 343.987 109.011 344.486 108.578C344.984 108.14 345.234 107.566 345.234 106.858C345.234 106.419 345.119 106.035 344.891 105.705C344.663 105.368 344.339 105.068 343.918 104.804C343.498 104.54 343.002 104.299 342.432 104.083L342.108 103.966C341.555 104.194 341.084 104.45 340.693 104.732C340.309 105.008 340.015 105.323 339.811 105.678C339.606 106.032 339.504 106.443 339.504 106.912ZM342.351 98.1108C341.642 98.1108 341.063 98.2819 340.612 98.6242C340.162 98.9605 339.937 99.447 339.937 100.084C339.937 100.54 340.045 100.927 340.261 101.246C340.483 101.558 340.783 101.828 341.162 102.056C341.54 102.279 341.964 102.486 342.432 102.678C342.888 102.486 343.294 102.276 343.648 102.047C344.002 101.813 344.282 101.537 344.486 101.219C344.69 100.9 344.792 100.519 344.792 100.075C344.792 99.438 344.567 98.9515 344.116 98.6152C343.672 98.2789 343.084 98.1108 342.351 98.1108Z" fill="#222222"/>
<g clip-path="url(#clip0_4043_200)">
<path d="M210.672 109.541C210.549 109.541 210.428 109.512 210.318 109.456L206.398 107.404L202.477 109.456C202.35 109.523 202.207 109.553 202.063 109.543C201.92 109.532 201.782 109.481 201.666 109.396C201.55 109.312 201.46 109.196 201.406 109.062C201.353 108.929 201.338 108.783 201.363 108.641L202.132 104.314L198.964 101.239C198.866 101.14 198.796 101.017 198.762 100.881C198.728 100.746 198.732 100.604 198.772 100.47C198.817 100.333 198.899 100.212 199.009 100.12C199.119 100.027 199.253 99.9676 199.395 99.9474L203.777 99.3093L205.706 95.3659C205.769 95.2359 205.867 95.1263 205.99 95.0496C206.112 94.9729 206.253 94.9322 206.398 94.9322C206.542 94.9322 206.684 94.9729 206.806 95.0496C206.928 95.1263 207.027 95.2359 207.09 95.3659L209.042 99.3016L213.424 99.9397C213.566 99.9599 213.7 100.02 213.81 100.112C213.92 100.204 214.002 100.326 214.047 100.462C214.087 100.596 214.091 100.738 214.057 100.873C214.023 101.009 213.953 101.132 213.854 101.231L210.687 104.306L211.456 108.634C211.483 108.778 211.469 108.927 211.415 109.063C211.36 109.199 211.268 109.317 211.149 109.402C211.009 109.5 210.842 109.549 210.672 109.541Z" fill="#F95F5F"/>
</g>
<g clip-path="url(#clip1_4043_200)">
<path d="M233.733 109.541C233.61 109.541 233.489 109.512 233.379 109.456L229.459 107.404L225.539 109.456C225.411 109.523 225.268 109.553 225.124 109.543C224.981 109.532 224.843 109.481 224.727 109.396C224.611 109.312 224.521 109.196 224.467 109.062C224.414 108.929 224.399 108.783 224.424 108.641L225.193 104.314L222.026 101.239C221.927 101.14 221.857 101.017 221.823 100.881C221.789 100.746 221.793 100.604 221.833 100.47C221.878 100.333 221.96 100.212 222.07 100.12C222.18 100.027 222.314 99.9676 222.456 99.9474L226.838 99.3093L228.767 95.3659C228.83 95.2359 228.928 95.1263 229.051 95.0496C229.173 94.9729 229.315 94.9322 229.459 94.9322C229.603 94.9322 229.745 94.9729 229.867 95.0496C229.99 95.1263 230.088 95.2359 230.151 95.3659L232.103 99.3016L236.485 99.9397C236.627 99.9599 236.761 100.02 236.871 100.112C236.981 100.204 237.063 100.326 237.108 100.462C237.148 100.596 237.152 100.738 237.118 100.873C237.084 101.009 237.014 101.132 236.915 101.231L233.748 104.306L234.517 108.634C234.544 108.778 234.53 108.927 234.476 109.063C234.421 109.199 234.329 109.317 234.21 109.402C234.07 109.5 233.903 109.549 233.733 109.541Z" fill="#F95F5F"/>
</g>
<g clip-path="url(#clip2_4043_200)">
<path d="M256.794 109.541C256.672 109.541 256.55 109.512 256.441 109.456L252.52 107.404L248.6 109.456C248.473 109.523 248.329 109.553 248.186 109.543C248.042 109.532 247.905 109.481 247.789 109.396C247.672 109.312 247.583 109.196 247.529 109.062C247.475 108.929 247.46 108.783 247.485 108.641L248.254 104.314L245.087 101.239C244.988 101.14 244.918 101.017 244.884 100.881C244.85 100.746 244.854 100.604 244.895 100.47C244.939 100.333 245.021 100.212 245.131 100.12C245.241 100.027 245.375 99.9676 245.518 99.9474L249.899 99.3093L251.829 95.3659C251.892 95.2359 251.99 95.1263 252.112 95.0496C252.235 94.9729 252.376 94.9322 252.52 94.9322C252.665 94.9322 252.806 94.9729 252.929 95.0496C253.051 95.1263 253.149 95.2359 253.212 95.3659L255.165 99.3016L259.546 99.9397C259.689 99.9599 259.822 100.02 259.933 100.112C260.043 100.204 260.125 100.326 260.169 100.462C260.21 100.596 260.214 100.738 260.18 100.873C260.146 101.009 260.076 101.132 259.977 101.231L256.81 104.306L257.579 108.634C257.606 108.778 257.592 108.927 257.537 109.063C257.483 109.199 257.39 109.317 257.271 109.402C257.132 109.5 256.964 109.549 256.794 109.541Z" fill="#F95F5F"/>
</g>
<g clip-path="url(#clip3_4043_200)">
<path d="M279.855 109.541C279.732 109.541 279.611 109.512 279.502 109.456L275.581 107.404L271.661 109.456C271.534 109.523 271.39 109.553 271.247 109.543C271.103 109.532 270.966 109.481 270.849 109.396C270.733 109.312 270.643 109.196 270.59 109.062C270.536 108.929 270.521 108.783 270.546 108.641L271.315 104.314L268.148 101.239C268.049 101.14 267.979 101.017 267.945 100.881C267.911 100.746 267.915 100.604 267.956 100.47C268 100.333 268.082 100.212 268.192 100.12C268.302 100.027 268.436 99.9676 268.578 99.9474L272.96 99.3093L274.889 95.3659C274.952 95.2359 275.051 95.1263 275.173 95.0496C275.295 94.9729 275.437 94.9322 275.581 94.9322C275.726 94.9322 275.867 94.9729 275.989 95.0496C276.112 95.1263 276.21 95.2359 276.273 95.3659L278.226 99.3016L282.607 99.9397C282.749 99.9599 282.883 100.02 282.993 100.112C283.103 100.204 283.185 100.326 283.23 100.462C283.271 100.596 283.274 100.738 283.24 100.873C283.207 101.009 283.137 101.132 283.038 101.231L279.871 104.306L280.639 108.634C280.667 108.778 280.652 108.927 280.598 109.063C280.543 109.199 280.451 109.317 280.332 109.402C280.193 109.5 280.025 109.549 279.855 109.541Z" fill="#F95F5F"/>
</g>
<g clip-path="url(#clip4_4043_200)">
<path d="M302.917 109.541C302.794 109.541 302.673 109.512 302.563 109.456L298.643 107.404L294.722 109.456C294.595 109.523 294.452 109.553 294.308 109.543C294.165 109.532 294.027 109.481 293.911 109.396C293.795 109.312 293.705 109.196 293.651 109.062C293.598 108.929 293.583 108.783 293.608 108.641L294.376 104.314L291.209 101.239C291.111 101.14 291.04 101.017 291.007 100.881C290.973 100.746 290.976 100.604 291.017 100.47C291.062 100.333 291.144 100.212 291.254 100.12C291.364 100.027 291.498 99.9676 291.64 99.9474L296.021 99.3093L297.951 95.3659C298.014 95.2359 298.112 95.1263 298.235 95.0496C298.357 94.9729 298.498 94.9322 298.643 94.9322C298.787 94.9322 298.929 94.9729 299.051 95.0496C299.173 95.1263 299.272 95.2359 299.335 95.3659L301.287 99.3016L305.669 99.9397C305.811 99.9599 305.945 100.02 306.055 100.112C306.165 100.204 306.247 100.326 306.291 100.462C306.332 100.596 306.336 100.738 306.302 100.873C306.268 101.009 306.198 101.132 306.099 101.231L302.932 104.306L303.701 108.634C303.728 108.778 303.714 108.927 303.659 109.063C303.605 109.199 303.513 109.317 303.393 109.402C303.254 109.5 303.087 109.549 302.917 109.541Z" fill="#E5E5E5"/>
</g>
<line x1="163.158" y1="93.3979" x2="163.158" y2="111.847" stroke="#DDDDDD" stroke-width="1.15306"/>
<defs>
<clipPath id="clip0_4043_200">
<rect width="18.449" height="18.449" fill="white" transform="translate(197.173 93.398)"/>
</clipPath>
<clipPath id="clip1_4043_200">
<rect width="18.449" height="18.449" fill="white" transform="translate(220.235 93.398)"/>
</clipPath>
<clipPath id="clip2_4043_200">
<rect width="18.449" height="18.449" fill="white" transform="translate(243.296 93.398)"/>
</clipPath>
<clipPath id="clip3_4043_200">
<rect width="18.449" height="18.449" fill="white" transform="translate(266.357 93.398)"/>
</clipPath>
<clipPath id="clip4_4043_200">
<rect width="18.449" height="18.449" fill="white" transform="translate(289.418 93.398)"/>
</clipPath>
</defs>
</svg>
